<?xml version="1.0" encoding="utf-8"?>
<svg viewBox="0 0 400 102.32558139534883" xmlns="http://www.w3.org/2000/svg">
  <path id="path0" d="M 302.852 6.681 C 302.45 6.86 301.88 7.211 301.585 7.461 C 301.29 7.712 300.832 8.048 300.566 8.208 C 300.301 8.368 299.633 8.838 299.083 9.253 C 298.533 9.668 297.746 10.185 297.333 10.404 C 296.921 10.622 296.396 11.003 296.167 11.25 C 295.938 11.497 295.408 11.874 294.99 12.087 C 294.571 12.3 294.127 12.597 294.003 12.747 C 293.878 12.897 293.508 13.131 293.18 13.268 C 292.852 13.405 292.358 13.73 292.083 13.99 C 291.808 14.251 291.27 14.621 290.886 14.813 C 290.503 15.005 290.141 15.239 290.083 15.334 C 290.024 15.429 289.625 15.684 289.197 15.902 C 288.768 16.119 288.274 16.455 288.099 16.649 C 287.925 16.842 287.709 17 287.619 17 C 287.53 17 287.098 17.258 286.66 17.572 C 286.222 17.887 285.575 18.292 285.223 18.471 C 284.871 18.651 284.433 18.967 284.25 19.173 C 284.067 19.379 283.539 19.717 283.077 19.923 C 282.615 20.129 282.132 20.424 282.004 20.578 C 281.877 20.732 281.467 21.012 281.094 21.201 C 280.722 21.39 280.185 21.741 279.902 21.981 C 279.346 22.451 278.166 23.215 277.17 23.75 C 276.829 23.933 276.295 24.293 275.983 24.549 C 274.935 25.41 273.852 26.152 273.038 26.564 C 272.593 26.79 272.126 27.098 272 27.25 C 271.874 27.402 271.424 27.702 271 27.917 C 270.576 28.132 270.126 28.431 270.001 28.583 C 269.875 28.734 269.467 29.012 269.094 29.201 C 268.722 29.39 268.183 29.741 267.898 29.981 C 267.612 30.221 266.874 30.717 266.256 31.083 C 265.639 31.45 264.823 31.993 264.442 32.29 C 264.061 32.586 263.356 33.026 262.875 33.267 C 262.394 33.508 262 33.765 262 33.838 C 262 33.911 261.681 34.125 261.292 34.314 C 260.902 34.503 260.182 34.96 259.692 35.329 C 259.201 35.698 258.707 36 258.592 36 C 258.478 36 258.242 36.158 258.068 36.35 C 257.893 36.543 257.526 36.815 257.25 36.956 C 256.975 37.096 256.311 37.538 255.775 37.939 C 255.239 38.339 254.724 38.667 254.631 38.667 C 254.538 38.667 254.227 38.859 253.94 39.093 C 253.172 39.719 251.867 40.584 250.917 41.097 C 250.458 41.345 249.981 41.693 249.856 41.871 C 249.73 42.049 249.317 42.328 248.938 42.491 C 248.558 42.654 247.992 43.004 247.679 43.268 C 247.132 43.732 246.691 44.032 245.505 44.75 C 245.202 44.933 244.63 45.324 244.234 45.619 C 243.838 45.913 243.135 46.346 242.673 46.58 C 242.211 46.814 241.833 47.078 241.833 47.166 C 241.833 47.254 241.515 47.488 241.125 47.686 C 240.735 47.884 240.2 48.227 239.935 48.449 C 239.669 48.67 239.107 49.029 238.685 49.245 C 237.075 50.069 236.344 51.058 236.958 51.582 C 237.424 51.98 248.958 63.263 258.683 72.833 C 260.872 74.987 264.593 78.625 266.952 80.917 C 269.311 83.208 273.08 86.898 275.329 89.117 C 280.697 94.414 281.654 95.318 282.18 95.59 C 282.536 95.775 284.634 95.822 293.255 95.842 L 303.89 95.866 L 304.126 95.415 C 304.256 95.167 304.32 94.803 304.267 94.607 C 304.215 94.411 304.166 78.612 304.159 59.5 C 304.151 40.387 304.089 24.409 304.021 23.993 C 303.947 23.542 303.982 22.733 304.108 21.993 C 304.251 21.145 304.325 18.559 304.339 13.861 C 304.364 5.732 304.417 5.987 302.852 6.681 M 347.917 7.596 C 344.029 8.054 340.93 8.517 340.747 8.669 C 340.645 8.754 339.891 9.006 339.072 9.229 C 338.253 9.452 337.289 9.76 336.929 9.915 C 336.569 10.069 335.782 10.345 335.179 10.528 C 334.576 10.711 333.818 11.042 333.493 11.263 C 333.168 11.483 332.511 11.78 332.032 11.923 C 331.554 12.065 330.919 12.392 330.623 12.65 C 330.326 12.908 329.783 13.214 329.417 13.33 C 329.05 13.445 328.563 13.71 328.333 13.918 C 328.104 14.126 327.6 14.455 327.213 14.649 C 326.826 14.843 326.263 15.211 325.963 15.467 C 325.663 15.722 325.192 16.071 324.917 16.242 C 324.642 16.413 324.357 16.653 324.283 16.776 C 324.21 16.899 324.038 17 323.9 17 C 323.763 17 323.273 17.378 322.811 17.84 C 322.349 18.302 321.353 19.221 320.598 19.882 C 318.941 21.331 315.488 25.211 315.004 26.167 C 314.888 26.396 314.618 26.771 314.405 27 C 314.192 27.229 313.861 27.772 313.669 28.206 C 313.477 28.64 313.178 29.071 313.005 29.164 C 312.833 29.256 312.532 29.757 312.338 30.276 C 312.144 30.795 311.807 31.431 311.591 31.688 C 311.374 31.946 311.066 32.552 310.905 33.036 C 310.745 33.521 310.478 34.104 310.313 34.333 C 310.148 34.563 309.829 35.387 309.603 36.167 C 309.378 36.946 309.069 37.876 308.917 38.234 C 308.765 38.592 308.5 39.53 308.328 40.317 C 308.156 41.105 307.9 42.076 307.759 42.474 C 306.859 45.025 306.822 56.698 307.704 60 C 307.888 60.688 308.144 61.775 308.273 62.417 C 308.402 63.058 308.657 63.984 308.84 64.473 C 309.023 64.962 309.326 65.937 309.513 66.639 C 309.701 67.342 310.034 68.225 310.255 68.603 C 310.475 68.98 310.813 69.713 311.007 70.23 C 311.201 70.748 311.53 71.377 311.739 71.628 C 311.948 71.878 312.211 72.366 312.324 72.713 C 312.436 73.059 312.711 73.559 312.934 73.824 C 313.157 74.089 313.488 74.64 313.668 75.048 C 313.848 75.456 314.11 75.884 314.25 76 C 314.39 76.116 314.739 76.651 315.025 77.189 C 315.312 77.727 315.609 78.167 315.686 78.167 C 315.762 78.167 315.947 78.41 316.097 78.708 C 316.401 79.314 316.851 79.805 319.235 82.135 C 322.621 85.445 323.11 85.866 325.417 87.448 C 325.783 87.699 326.365 88.151 326.709 88.452 C 327.053 88.754 327.444 89 327.578 89 C 327.712 89 328.068 89.212 328.369 89.471 C 328.67 89.731 329.243 90.07 329.641 90.226 C 330.04 90.383 330.64 90.728 330.974 90.994 C 331.309 91.259 331.864 91.528 332.208 91.59 C 332.551 91.652 333.152 91.916 333.543 92.175 C 333.935 92.434 334.854 92.81 335.586 93.01 C 336.318 93.209 337.206 93.52 337.559 93.699 C 338.226 94.037 342.921 95.148 345.25 95.519 C 347.079 95.81 355.91 95.817 357.917 95.529 C 359.283 95.333 361.471 94.888 364.333 94.223 C 364.929 94.085 365.604 93.852 365.833 93.704 C 366.063 93.557 366.875 93.269 367.638 93.065 C 368.402 92.861 369.302 92.507 369.638 92.28 C 369.975 92.052 370.676 91.746 371.197 91.598 C 371.718 91.451 372.356 91.156 372.614 90.942 C 372.872 90.728 373.496 90.354 374 90.11 C 374.504 89.865 375.152 89.497 375.44 89.291 C 375.968 88.913 376.475 88.593 377.751 87.833 C 378.136 87.604 378.968 86.96 379.6 86.402 C 380.233 85.843 380.875 85.318 381.028 85.235 C 381.518 84.969 384.039 82.469 385.468 80.833 C 388.093 77.83 388.443 77.393 389.125 76.269 C 389.285 76.004 389.669 75.448 389.978 75.033 C 390.287 74.617 390.652 74.01 390.789 73.682 C 390.926 73.354 391.211 72.88 391.423 72.628 C 391.635 72.377 391.924 71.772 392.066 71.286 C 392.207 70.799 392.506 70.229 392.731 70.018 C 393.002 69.763 393.234 69.235 393.424 68.443 C 393.581 67.787 393.917 66.93 394.171 66.538 C 394.482 66.06 394.723 65.338 394.908 64.334 C 395.058 63.513 395.333 62.408 395.519 61.879 C 397.038 57.535 397.035 46.45 395.513 41.5 C 395.245 40.629 394.938 39.373 394.831 38.71 C 394.705 37.929 394.485 37.282 394.206 36.876 C 393.969 36.532 393.644 35.703 393.482 35.034 C 393.283 34.21 393.03 33.638 392.694 33.256 C 392.393 32.912 392.156 32.413 392.085 31.972 C 392.019 31.564 391.755 30.979 391.477 30.626 C 391.207 30.283 390.874 29.684 390.736 29.295 C 390.599 28.906 390.311 28.399 390.095 28.169 C 389.88 27.939 389.551 27.445 389.364 27.072 C 389.177 26.699 388.91 26.299 388.77 26.183 C 388.63 26.067 388.311 25.622 388.061 25.194 C 387.811 24.767 387.414 24.21 387.179 23.957 C 386.943 23.704 386.466 23.179 386.12 22.79 C 383.345 19.677 379.984 16.778 377.937 15.732 C 376.185 14.836 375 14.13 375 13.982 C 375 13.893 374.494 13.593 373.875 13.315 C 373.256 13.038 372.59 12.661 372.395 12.478 C 372.199 12.295 371.603 12.031 371.07 11.892 C 370.537 11.753 369.924 11.5 369.708 11.33 C 369.492 11.16 368.813 10.857 368.199 10.656 C 367.586 10.455 366.666 10.117 366.155 9.906 C 365.645 9.694 364.723 9.404 364.107 9.262 C 363.491 9.119 362.765 8.887 362.493 8.746 C 360.833 7.888 351.62 7.161 347.917 7.596 M 36 20.33 C 35.313 20.406 34.262 20.583 33.667 20.723 C 33.071 20.863 31.608 21.1 30.417 21.249 C 28.979 21.429 27.961 21.652 27.391 21.911 C 26.918 22.125 26.097 22.427 25.566 22.581 C 25.035 22.736 24.184 23.07 23.675 23.325 C 23.166 23.579 22.455 23.883 22.095 24 C 21.734 24.117 21.101 24.427 20.687 24.69 C 20.273 24.952 19.8 25.167 19.635 25.167 C 19.469 25.167 19.053 25.419 18.709 25.728 C 18.365 26.037 17.69 26.489 17.208 26.731 C 16.727 26.974 16.333 27.24 16.333 27.322 C 16.333 27.404 15.958 27.702 15.5 27.984 C 15.042 28.266 14.667 28.571 14.667 28.661 C 14.667 28.751 14.452 28.936 14.189 29.072 C 13.927 29.207 12.746 30.288 11.564 31.472 C 8.464 34.582 8 35.079 8 35.287 C 8 35.39 7.783 35.691 7.519 35.955 C 7.254 36.22 6.848 36.812 6.615 37.27 C 6.383 37.729 6.069 38.207 5.917 38.333 C 5.766 38.458 5.421 39.016 5.15 39.572 C 4.879 40.128 4.514 40.846 4.339 41.167 C 3.631 42.464 2.856 44.3 2.667 45.127 C 2.556 45.609 2.29 46.262 2.076 46.578 C 1.862 46.894 1.603 47.625 1.502 48.201 C 1.401 48.778 1.252 49.625 1.172 50.083 C 0.949 51.357 0.721 51.833 0.337 51.833 C 0 51.833 0 51.854 0 73.91 L 0 95.987 L 6.812 95.996 C 13.564 96.005 15.094 95.906 15.487 95.432 C 15.607 95.288 15.681 88.802 15.72 74.902 C 15.783 53.071 15.806 52.476 16.638 51.129 C 16.828 50.823 17.062 50.2 17.159 49.745 C 17.256 49.289 17.373 48.752 17.419 48.551 C 17.464 48.35 17.708 47.96 17.959 47.684 C 18.211 47.409 18.551 46.806 18.714 46.344 C 18.878 45.883 19.158 45.427 19.337 45.331 C 19.517 45.235 19.783 44.925 19.929 44.642 C 20.209 44.101 24.429 39.833 24.684 39.833 C 24.766 39.833 25.114 39.586 25.458 39.284 C 26.239 38.598 28.112 37.408 28.667 37.245 C 28.896 37.178 29.29 36.977 29.543 36.8 L 30.002 36.476 L 30.494 36.969 L 30.987 37.462 L 30.985 65.439 C 30.984 80.827 30.925 93.766 30.854 94.192 C 30.571 95.885 31.021 95.991 38.551 95.996 C 44.71 96 45.697 95.905 46.053 95.269 C 46.203 95 46.23 88.159 46.167 66.25 C 46.075 34.68 46.031 37.246 46.672 36.914 C 47.345 36.566 50.573 38.133 51.51 39.263 C 51.629 39.405 51.956 39.641 52.238 39.786 C 52.768 40.058 53.213 40.457 54.917 42.183 C 56.868 44.16 57.167 44.489 57.167 44.66 C 57.167 44.755 57.416 45.114 57.72 45.458 C 58.024 45.802 58.373 46.346 58.494 46.667 C 58.616 46.987 58.918 47.513 59.166 47.834 C 59.452 48.205 59.682 48.792 59.797 49.441 C 59.896 50.004 60.202 50.909 60.476 51.453 C 61.295 53.075 61.336 54.247 61.332 75.773 C 61.328 95.156 61.329 95.237 61.669 95.576 C 62.206 96.113 75.965 96.109 76.503 95.571 C 77.192 94.882 76.926 53.795 76.218 51.5 C 76.034 50.904 75.732 49.817 75.546 49.083 C 74.926 46.637 74.191 44.328 73.858 43.786 C 73.677 43.491 73.407 42.824 73.257 42.304 C 73.107 41.784 72.763 41.08 72.492 40.74 C 72.222 40.4 71.926 39.846 71.836 39.508 C 71.745 39.171 71.475 38.712 71.235 38.489 C 70.996 38.266 70.626 37.741 70.413 37.323 C 70.2 36.905 69.903 36.46 69.752 36.335 C 69.601 36.21 69.362 35.877 69.22 35.595 C 68.973 35.105 68.755 34.845 67.25 33.249 C 66.883 32.86 66.466 32.401 66.322 32.229 C 66 31.844 63.56 29.626 62.376 28.643 C 60.748 27.29 60.411 27.034 59.746 26.649 C 59.382 26.438 58.821 26.064 58.5 25.817 C 58.179 25.571 57.64 25.282 57.302 25.175 C 56.964 25.068 56.514 24.846 56.302 24.681 C 55.857 24.335 53.589 23.361 51.417 22.584 C 50.592 22.289 49.646 21.928 49.315 21.782 C 48.984 21.635 47.746 21.393 46.565 21.243 C 45.383 21.094 43.778 20.831 42.997 20.661 C 41.34 20.298 37.792 20.13 36 20.33 M 129.917 20.339 C 128.817 20.405 126.792 20.65 125.417 20.884 C 124.042 21.118 122.576 21.355 122.159 21.41 C 121.742 21.465 120.884 21.77 120.252 22.088 C 119.62 22.406 119.005 22.667 118.886 22.667 C 118.586 22.667 115.492 24.288 115.083 24.659 C 114.9 24.826 114.445 25.115 114.072 25.302 C 113.699 25.489 113.292 25.765 113.168 25.915 C 113.043 26.066 112.71 26.306 112.429 26.45 C 111.931 26.705 108.131 30.45 107.04 31.763 C 106.741 32.122 106.207 32.754 105.853 33.167 C 105.499 33.579 105.056 34.222 104.867 34.594 C 104.679 34.967 104.398 35.377 104.245 35.504 C 104.091 35.632 103.785 36.115 103.565 36.577 C 103.345 37.039 103.015 37.65 102.832 37.934 C 102.648 38.219 102.416 38.892 102.317 39.431 C 102.185 40.144 101.988 40.574 101.594 41.011 C 101.237 41.405 101.011 41.862 100.934 42.347 C 100.869 42.752 100.644 43.383 100.433 43.75 C 100.223 44.117 99.953 44.904 99.833 45.5 C 99.714 46.096 99.447 47.071 99.241 47.667 C 97.945 51.414 97.892 64.954 99.161 68.369 C 99.341 68.854 99.638 69.85 99.822 70.583 C 100.363 72.742 101.31 75.34 101.743 75.856 C 101.97 76.125 102.197 76.671 102.262 77.103 C 102.334 77.589 102.55 78.068 102.846 78.406 C 103.105 78.7 103.475 79.367 103.67 79.888 C 103.865 80.409 104.174 80.915 104.357 81.012 C 104.539 81.11 104.834 81.504 105.012 81.887 C 105.727 83.429 109.513 87.638 111.278 88.852 C 111.675 89.126 112 89.415 112 89.496 C 112 89.576 112.404 89.873 112.897 90.155 C 113.391 90.438 113.892 90.787 114.012 90.931 C 114.131 91.075 114.609 91.385 115.073 91.62 C 115.537 91.855 116.142 92.212 116.417 92.414 C 116.692 92.615 117.179 92.878 117.5 92.999 C 117.821 93.119 118.464 93.429 118.929 93.688 C 122.163 95.485 126.089 95.847 143.476 95.95 C 159.089 96.043 160.107 96.012 160.789 95.425 L 161.228 95.047 L 161.215 88.782 C 161.201 82.677 161.192 82.503 160.848 82.02 L 160.494 81.524 L 144.789 81.45 C 127.092 81.367 126.258 81.316 124.063 80.19 C 123.501 79.902 122.966 79.667 122.873 79.667 C 122.78 79.667 122.319 79.402 121.848 79.078 C 121.377 78.753 120.793 78.413 120.55 78.321 C 119.711 78.002 116.135 74.743 115.716 73.917 C 115.577 73.642 115.255 73.192 115.001 72.917 C 114.748 72.642 114.416 72.034 114.265 71.566 C 114.113 71.098 113.807 70.544 113.585 70.335 C 113.336 70.101 113.111 69.618 112.999 69.077 C 112.898 68.593 112.601 67.872 112.338 67.474 C 111.999 66.959 111.73 66.148 111.408 64.667 C 111.159 63.521 110.846 62.096 110.713 61.5 C 110.336 59.807 110.504 55.58 111.038 53.333 C 111.267 52.371 111.544 51.156 111.654 50.633 C 111.764 50.111 112.036 49.414 112.26 49.084 C 112.484 48.755 112.79 47.994 112.941 47.393 C 113.092 46.793 113.39 46.093 113.604 45.839 C 113.818 45.584 114.135 45.047 114.307 44.644 C 114.48 44.241 114.75 43.805 114.907 43.675 C 115.064 43.544 115.371 43.085 115.59 42.654 C 116.222 41.406 120.205 37.835 121.622 37.246 C 121.967 37.102 122.521 36.797 122.852 36.569 C 123.231 36.307 124.036 36.034 125.019 35.832 C 125.879 35.656 127.108 35.344 127.75 35.138 L 128.917 34.763 L 144.786 34.673 C 159.176 34.592 160.68 34.558 160.927 34.311 C 161.169 34.069 161.201 33.342 161.208 27.781 C 161.218 21.084 161.177 20.71 160.398 20.355 C 159.931 20.142 133.437 20.129 129.917 20.339 M 164.886 20.492 C 164.594 20.67 164.274 20.965 164.177 21.148 C 163.995 21.488 163.901 95.038 164.082 95.331 C 164.482 95.978 175.459 96.363 177.998 95.818 C 179.345 95.529 179.26 96.607 179.167 80.917 C 179.081 66.558 179.103 65.917 179.699 65.461 C 179.727 65.439 187.751 65.383 197.53 65.336 L 215.309 65.25 L 215.78 64.89 C 216.038 64.692 216.216 64.429 216.175 64.307 C 216.025 63.86 215.985 54.225 216.129 53.333 C 216.313 52.201 215.913 51.285 215.115 51.007 C 214.782 50.891 208.864 50.833 197.254 50.833 L 179.891 50.833 L 179.518 50.436 L 179.145 50.039 L 179.161 35.771 C 179.179 19.678 179.26 20.689 177.933 20.355 C 176.482 19.989 165.521 20.104 164.886 20.492 M 86.25 22 C 85.904 22.275 85.548 22.5 85.46 22.5 C 85.371 22.5 84.961 22.728 84.549 23.006 C 84.137 23.284 83.438 23.695 82.995 23.919 C 82.552 24.143 82.141 24.407 82.08 24.505 C 82.019 24.604 81.512 24.906 80.952 25.177 C 80.393 25.448 79.781 25.811 79.593 25.983 C 79.404 26.155 78.856 26.494 78.375 26.734 C 77.894 26.975 77.5 27.204 77.5 27.243 C 77.5 27.423 79.979 29.138 80.485 29.309 C 80.798 29.415 81.295 29.686 81.59 29.911 C 81.885 30.136 82.539 30.502 83.042 30.725 C 83.545 30.947 84.008 31.211 84.069 31.31 C 84.13 31.409 84.523 31.642 84.942 31.827 C 85.36 32.012 85.969 32.397 86.294 32.683 C 86.973 33.279 87.893 33.271 88.667 32.663 C 88.896 32.482 89.383 32.176 89.75 31.982 C 90.117 31.789 90.604 31.46 90.833 31.252 C 91.063 31.044 91.55 30.781 91.917 30.667 C 92.283 30.554 92.846 30.22 93.167 29.925 C 93.487 29.63 94.087 29.292 94.499 29.175 C 95.202 28.975 95.769 28.608 96.777 27.697 L 97.204 27.311 L 96.831 26.914 C 96.626 26.696 96.241 26.47 95.975 26.411 C 95.709 26.353 95.288 26.133 95.038 25.923 C 94.788 25.713 94.208 25.357 93.75 25.131 C 92.983 24.754 91.989 24.177 90.5 23.242 C 87.712 21.493 87.11 21.317 86.25 22 M 224.89 21.795 C 224.783 21.971 224.408 22.249 224.057 22.413 C 223.705 22.578 223.069 22.964 222.644 23.273 C 222.22 23.581 221.797 23.833 221.705 23.833 C 221.613 23.833 221.168 24.088 220.716 24.398 C 220.264 24.709 219.525 25.161 219.072 25.404 C 217.452 26.271 216.333 27.019 216.333 27.232 C 216.333 27.619 218.235 29.127 218.972 29.326 C 219.357 29.429 219.914 29.725 220.211 29.983 C 220.507 30.241 221.012 30.538 221.333 30.642 C 221.654 30.747 222.286 31.095 222.738 31.416 C 223.189 31.737 223.644 32 223.749 32 C 223.854 32 224.234 32.267 224.595 32.594 C 225.378 33.304 226.403 33.307 227.159 32.601 C 227.392 32.383 227.846 32.073 228.167 31.912 C 228.487 31.751 228.96 31.445 229.216 31.231 C 229.472 31.017 229.963 30.766 230.307 30.674 C 230.651 30.581 231.148 30.281 231.41 30.006 C 231.679 29.726 232.259 29.395 232.736 29.251 C 233.762 28.94 235.442 27.524 235.282 27.106 C 235.226 26.96 234.821 26.665 234.382 26.45 C 233.943 26.235 233.307 25.877 232.968 25.655 C 232.63 25.432 231.814 24.95 231.154 24.583 C 230.494 24.217 229.582 23.673 229.127 23.375 C 228.672 23.077 228.24 22.833 228.167 22.833 C 228.093 22.833 227.643 22.57 227.165 22.249 C 226.081 21.519 225.168 21.337 224.89 21.795 M 303.216 22.875 C 303.38 23.066 303.473 23.331 303.421 23.465 C 303.279 23.836 303.171 38.044 303.094 66.72 C 303.02 93.946 303.025 93.788 302.364 93.465 C 301.575 93.078 300.929 92.571 300.091 91.679 C 299.537 91.09 298.939 90.49 298.763 90.345 C 298.587 90.201 298.212 89.848 297.93 89.561 C 297.648 89.274 296.667 88.386 295.75 87.589 C 293.816 85.906 293.01 85.196 292.078 84.356 C 291.709 84.023 290.963 83.375 290.421 82.917 C 289.879 82.458 289.046 81.708 288.569 81.25 C 288.092 80.792 287.165 79.929 286.508 79.333 C 285.4 78.328 284.952 77.916 283.228 76.319 C 282.873 75.991 281.871 75.1 281 74.339 C 280.129 73.579 279.185 72.722 278.902 72.437 C 278.62 72.151 277.912 71.504 277.33 71 C 276.748 70.496 275.663 69.521 274.92 68.833 C 274.177 68.146 272.901 66.983 272.085 66.25 C 270.729 65.031 270.256 64.594 268.5 62.935 C 268.179 62.632 266.988 61.57 265.852 60.576 C 264.717 59.582 263.329 58.324 262.769 57.779 C 262.209 57.235 261.135 56.274 260.384 55.644 C 259.633 55.014 258.679 54.18 258.265 53.791 C 257.851 53.402 257.315 52.932 257.073 52.746 C 256.288 52.143 256.722 51.127 257.962 50.666 C 258.487 50.47 259.104 50.136 259.333 49.923 C 259.563 49.711 260.087 49.37 260.5 49.166 C 260.912 48.962 261.424 48.636 261.637 48.441 C 261.85 48.246 262.311 47.935 262.662 47.751 C 263.013 47.567 263.947 46.986 264.736 46.46 C 265.526 45.934 266.457 45.359 266.805 45.181 C 267.154 45.003 267.542 44.734 267.668 44.582 C 267.794 44.43 268.314 44.095 268.823 43.838 C 269.333 43.58 269.893 43.212 270.067 43.018 C 270.242 42.825 270.48 42.667 270.596 42.667 C 270.713 42.667 271.147 42.408 271.562 42.091 C 271.976 41.775 272.638 41.352 273.033 41.151 C 273.427 40.951 273.938 40.643 274.167 40.468 C 275.509 39.441 276.907 38.5 277.09 38.5 C 277.207 38.5 277.601 38.256 277.967 37.958 C 278.333 37.66 279.024 37.192 279.502 36.917 C 281.543 35.742 281.85 35.545 282.165 35.206 C 282.348 35.01 282.839 34.699 283.257 34.514 C 283.674 34.33 284.213 34.024 284.453 33.834 C 284.694 33.645 285.197 33.343 285.57 33.163 C 285.944 32.984 286.561 32.592 286.941 32.293 C 287.321 31.994 288.02 31.525 288.494 31.25 C 288.968 30.975 289.686 30.505 290.089 30.205 C 290.493 29.905 291.144 29.521 291.537 29.351 C 291.929 29.182 292.4 28.875 292.583 28.669 C 292.767 28.463 293.301 28.124 293.77 27.916 C 294.24 27.708 294.676 27.452 294.74 27.349 C 294.805 27.245 295.213 26.98 295.647 26.76 C 296.082 26.54 296.539 26.237 296.663 26.087 C 296.859 25.851 297.691 25.315 299.731 24.11 C 300.016 23.941 300.475 23.594 300.75 23.338 C 301.839 22.324 302.614 22.178 303.216 22.875 M 355.5 24.521 C 357.153 24.755 360.15 25.571 360.855 25.98 C 361.164 26.16 361.754 26.395 362.167 26.503 C 362.579 26.611 363.356 26.992 363.894 27.349 C 364.432 27.707 364.945 28 365.035 28 C 365.285 28 368 29.843 368 30.013 C 368 30.095 368.297 30.35 368.661 30.58 C 369.514 31.118 372.923 34.55 373.465 35.417 C 373.695 35.783 374.057 36.293 374.27 36.549 C 374.483 36.805 374.749 37.319 374.86 37.691 C 374.972 38.063 375.237 38.481 375.449 38.62 C 375.693 38.78 375.936 39.217 376.107 39.808 C 376.257 40.322 376.567 41.026 376.795 41.372 C 377.192 41.971 377.493 42.842 378.181 45.378 C 379.437 50.012 378.712 58.548 376.777 61.895 C 376.558 62.273 376.249 62.996 376.09 63.5 C 375.931 64.004 375.658 64.541 375.484 64.693 C 375.31 64.845 375.025 65.304 374.849 65.713 C 374.162 67.316 372.049 69.774 369.205 72.278 C 367.304 73.952 367.013 74.178 366.459 74.41 C 366.137 74.544 365.658 74.833 365.395 75.051 C 365.132 75.269 364.546 75.572 364.093 75.725 C 363.641 75.877 363.105 76.156 362.903 76.346 C 362.702 76.535 362.022 76.823 361.393 76.986 C 360.764 77.148 359.923 77.448 359.524 77.653 C 356.846 79.025 346.751 79.033 343.917 77.666 C 343.367 77.401 342.553 77.103 342.108 77.004 C 341.184 76.799 340.489 76.472 340.177 76.096 C 340.058 75.953 339.669 75.757 339.312 75.661 C 338.955 75.565 338.42 75.275 338.123 75.016 C 337.826 74.758 337.321 74.412 337 74.247 C 335.753 73.608 333.14 71.34 331.833 69.763 C 331.329 69.154 330.598 68.281 330.208 67.823 C 329.819 67.364 329.5 66.927 329.5 66.852 C 329.5 66.777 329.311 66.511 329.08 66.262 C 328.849 66.013 328.464 65.421 328.224 64.946 C 327.984 64.472 327.653 63.911 327.488 63.699 C 327.323 63.488 327.022 62.813 326.818 62.199 C 326.615 61.586 326.347 60.927 326.223 60.735 C 326.099 60.544 325.844 59.681 325.657 58.819 C 325.47 57.956 325.154 56.725 324.955 56.083 C 324.373 54.207 324.415 48.984 325.027 47 C 325.268 46.221 325.614 44.983 325.795 44.25 C 326.217 42.547 327.246 39.707 327.571 39.348 C 327.708 39.196 327.971 38.732 328.154 38.317 C 328.338 37.902 328.649 37.417 328.845 37.24 C 329.041 37.062 329.355 36.617 329.542 36.25 C 330.43 34.505 334.842 30.098 336.594 29.203 C 336.967 29.013 337.38 28.728 337.511 28.57 C 337.643 28.412 338.2 28.08 338.75 27.833 C 339.3 27.587 339.85 27.264 339.972 27.117 C 340.095 26.969 340.616 26.726 341.132 26.576 C 341.647 26.427 342.423 26.125 342.856 25.905 C 345.488 24.572 351.326 23.933 355.5 24.521 M 76.18 29.401 C 75.911 29.725 75.921 39.391 76.192 40.166 C 76.318 40.528 76.602 40.797 77.154 41.077 C 77.585 41.295 78.045 41.604 78.177 41.763 C 78.309 41.921 78.871 42.255 79.427 42.505 C 79.983 42.754 80.646 43.152 80.902 43.388 C 81.157 43.625 81.64 43.906 81.974 44.013 C 82.309 44.121 82.712 44.321 82.868 44.457 C 83.025 44.594 83.736 44.996 84.449 45.349 C 86.322 46.279 86.232 46.495 86.333 40.869 C 86.442 34.864 86.448 34.932 85.719 34.481 C 85.399 34.283 85.013 33.992 84.86 33.833 C 84.708 33.675 84.187 33.415 83.702 33.257 C 83.182 33.087 82.715 32.808 82.564 32.577 C 82.413 32.347 81.95 32.069 81.445 31.905 C 80.971 31.752 80.396 31.455 80.167 31.245 C 79.938 31.036 79.391 30.699 78.953 30.495 C 78.515 30.292 78.086 29.994 78.001 29.835 C 77.915 29.675 77.636 29.502 77.381 29.45 C 77.126 29.399 76.797 29.311 76.652 29.254 C 76.506 29.198 76.294 29.264 76.18 29.401 M 96.968 29.673 C 96.689 29.952 96.151 30.337 95.772 30.53 C 95.393 30.724 94.858 31.051 94.583 31.258 C 94.308 31.465 93.784 31.757 93.419 31.908 C 93.054 32.059 92.604 32.323 92.419 32.494 C 92.234 32.665 91.671 33 91.167 33.237 C 90.177 33.702 88.501 34.873 88.294 35.244 C 88.122 35.551 88.026 45.511 88.192 45.854 C 88.359 46.2 89.406 46.037 90.104 45.555 C 90.368 45.374 90.825 45.129 91.119 45.011 C 91.414 44.894 91.752 44.681 91.869 44.54 C 91.987 44.398 92.543 44.076 93.105 43.823 C 93.668 43.571 94.183 43.276 94.25 43.167 C 94.317 43.058 94.832 42.75 95.395 42.482 C 95.957 42.215 96.679 41.812 97 41.588 C 97.321 41.363 97.745 41.066 97.942 40.927 C 98.423 40.59 98.478 40.03 98.589 34.389 L 98.68 29.695 L 98.303 29.431 C 97.769 29.057 97.543 29.098 96.968 29.673 M 235.288 29.717 C 234.777 30.266 233.664 30.954 231.917 31.802 C 231.367 32.069 230.782 32.439 230.617 32.625 C 230.452 32.81 230.002 33.051 229.617 33.16 C 229.194 33.281 228.521 33.712 227.917 34.252 L 226.917 35.144 L 226.864 39.88 C 226.795 45.961 227.044 46.834 228.498 45.61 C 228.788 45.366 229.114 45.166 229.221 45.165 C 229.329 45.164 229.741 44.906 230.137 44.591 C 230.534 44.276 231.134 43.927 231.471 43.816 C 231.808 43.705 232.346 43.411 232.667 43.163 C 232.987 42.915 233.583 42.584 233.99 42.428 C 234.397 42.272 234.96 41.959 235.24 41.733 C 235.521 41.507 235.975 41.143 236.25 40.925 L 236.75 40.529 L 236.836 35.223 C 236.927 29.574 236.916 29.481 236.131 29.276 C 235.883 29.211 235.641 29.338 235.288 29.717 M 215.167 29.553 C 214.658 29.729 214.589 29.818 214.625 30.252 C 214.648 30.526 214.661 32.672 214.655 35.021 C 214.638 40.813 214.693 40.941 217.826 42.428 C 218.327 42.666 218.977 43.071 219.271 43.329 C 219.564 43.587 220.092 43.89 220.444 44.003 C 220.796 44.116 221.233 44.342 221.417 44.507 C 221.677 44.74 223.951 45.995 224.121 45.999 C 224.804 46.014 224.981 35.251 224.307 34.707 C 224.109 34.547 223.678 34.182 223.349 33.896 C 223.019 33.609 222.498 33.32 222.19 33.254 C 221.881 33.187 221.356 32.888 221.023 32.59 C 220.689 32.292 220.029 31.92 219.554 31.765 C 219.08 31.609 218.598 31.368 218.482 31.229 C 218.367 31.09 217.967 30.823 217.594 30.636 C 217.222 30.449 216.715 30.079 216.468 29.815 C 215.964 29.275 215.971 29.276 215.167 29.553 M 355.917 42.837 C 353.731 43.201 353.026 43.766 353.317 44.921 C 353.436 45.395 353.5 48.252 353.5 53.131 C 353.5 60.323 353.513 60.626 353.823 60.907 C 354.153 61.206 355.133 61.057 355.583 60.638 C 355.691 60.538 355.732 57.907 355.699 53.2 C 355.672 49.194 355.709 45.837 355.783 45.74 C 356.309 45.047 356.615 45 360.593 45 C 366.33 45 366.35 45.007 367.128 47.128 L 367.633 48.505 L 367.307 49.362 C 366.558 51.333 366.129 51.667 364.348 51.667 C 362.445 51.667 362.035 53.058 363.489 54.579 C 363.755 54.856 364.059 55.421 364.167 55.833 C 364.274 56.246 364.577 56.809 364.84 57.084 C 365.133 57.39 365.391 57.909 365.503 58.417 C 365.641 59.045 365.902 59.491 366.563 60.228 L 367.439 61.207 L 367.97 60.932 C 368.261 60.782 368.5 60.578 368.5 60.48 C 368.5 59.92 367.931 58.493 367.573 58.157 C 367.344 57.942 367.04 57.366 366.898 56.878 C 366.723 56.274 366.485 55.876 366.153 55.631 C 365.131 54.875 365.523 53.465 366.889 52.982 C 367.318 52.83 367.72 52.495 368.112 51.961 C 368.433 51.524 368.755 51.167 368.829 51.167 C 369.198 51.167 369.563 49.86 369.573 48.5 C 369.583 47.099 369.183 45.5 368.822 45.5 C 368.739 45.5 368.488 45.21 368.263 44.855 C 367.977 44.401 367.469 43.992 366.553 43.48 L 365.25 42.75 L 361 42.724 C 358.662 42.71 356.375 42.761 355.917 42.837 M 334.875 43.11 C 334.325 43.332 334.783 45.196 335.663 46.318 C 335.921 46.647 336.184 47.104 336.248 47.333 C 336.311 47.563 336.61 48.125 336.912 48.583 C 337.215 49.042 337.548 49.686 337.652 50.014 C 337.756 50.343 338 50.782 338.193 50.99 C 338.387 51.198 338.69 51.749 338.867 52.215 C 339.044 52.68 339.372 53.279 339.595 53.545 C 339.819 53.811 340.088 54.37 340.194 54.788 C 340.299 55.205 340.593 55.784 340.847 56.073 C 341.101 56.363 341.451 56.971 341.624 57.425 C 341.887 58.116 343.383 60.333 343.587 60.333 C 343.714 60.333 345.337 57.815 345.572 57.252 C 345.705 56.932 346.038 56.388 346.31 56.043 C 346.583 55.699 346.879 55.14 346.97 54.802 C 347.06 54.464 347.323 53.939 347.554 53.635 C 347.785 53.332 348.136 52.652 348.333 52.125 C 348.53 51.598 348.758 51.167 348.841 51.167 C 349.012 51.167 350.747 47.639 350.893 46.995 C 350.945 46.764 351.328 46.136 351.744 45.6 C 352.736 44.323 352.735 43 351.742 43 C 351.277 43 350.014 44.478 349.725 45.36 C 349.571 45.832 349.24 46.451 348.989 46.737 C 348.739 47.022 348.445 47.592 348.336 48.003 C 348.227 48.414 347.929 48.975 347.673 49.25 C 347.417 49.525 347.083 50.133 346.931 50.601 C 346.78 51.069 346.473 51.624 346.25 51.833 C 346.027 52.043 345.725 52.574 345.579 53.014 C 345.338 53.738 345.112 54.1 344.003 55.534 C 343.578 56.083 343.295 56.002 342.806 55.192 C 342.603 54.857 342.27 54.41 342.065 54.199 C 341.86 53.987 341.641 53.51 341.578 53.138 C 341.507 52.717 341.253 52.227 340.906 51.844 C 340.593 51.497 340.28 50.921 340.192 50.53 C 340.106 50.148 339.814 49.582 339.544 49.274 C 339.273 48.966 338.96 48.347 338.848 47.898 C 338.735 47.444 338.434 46.862 338.17 46.583 C 337.909 46.308 337.61 45.762 337.506 45.369 C 337.175 44.118 335.642 42.801 334.875 43.11 M 80.754 50.979 C 79.794 51.185 79.838 50.098 79.836 73.599 L 79.833 95.282 L 80.184 95.599 C 80.615 95.989 93.114 96.2 94.003 95.832 C 94.89 95.465 95.159 95.011 94.991 94.167 C 94.907 93.746 94.846 84.288 94.851 72.644 C 94.861 50.431 94.897 51.401 94.043 51.012 C 93.617 50.818 81.645 50.788 80.754 50.979 M 219.583 50.915 C 219.492 50.946 219.223 51.013 218.987 51.065 C 218.147 51.248 218.171 50.593 218.165 73.621 C 218.159 95.186 218.16 95.234 218.501 95.575 C 219.162 96.237 233.014 96.152 233.427 95.484 C 233.593 95.215 233.517 51.843 233.35 51.531 C 233.02 50.914 232.127 50.833 225.814 50.846 C 222.479 50.854 219.675 50.885 219.583 50.915" stroke="none" fill-rule="evenodd" style="fill: rgb(255, 255, 255);">
    <title>white</title>
  </path>
  <path id="path1" d="M 350.797 7.29 C 351.282 7.324 352.032 7.323 352.464 7.289 C 352.896 7.255 352.5 7.227 351.583 7.228 C 350.667 7.228 350.313 7.256 350.797 7.29 M 304.402 10.75 C 304.402 12.4 304.427 13.052 304.458 12.2 C 304.488 11.347 304.488 9.997 304.457 9.2 C 304.427 8.402 304.402 9.1 304.402 10.75 M 304.379 19.167 C 304.379 19.579 304.411 19.748 304.451 19.542 C 304.491 19.335 304.491 18.998 304.451 18.792 C 304.411 18.585 304.379 18.754 304.379 19.167 M 284.073 19.208 L 283.583 19.75 L 284.125 19.26 C 284.63 18.804 284.743 18.667 284.615 18.667 C 284.586 18.667 284.342 18.91 284.073 19.208 M 319.906 20.375 L 319.417 20.917 L 319.958 20.427 C 320.463 19.971 320.577 19.833 320.448 19.833 C 320.419 19.833 320.175 20.077 319.906 20.375 M 36.125 20.284 C 36.331 20.324 36.669 20.324 36.875 20.284 C 37.081 20.245 36.912 20.212 36.5 20.212 C 36.087 20.212 35.919 20.245 36.125 20.284 M 40.125 20.284 C 40.331 20.324 40.669 20.324 40.875 20.284 C 41.081 20.245 40.912 20.212 40.5 20.212 C 40.087 20.212 39.919 20.245 40.125 20.284 M 130.121 20.287 C 130.417 20.324 130.942 20.324 131.288 20.288 C 131.634 20.252 131.392 20.222 130.75 20.221 C 130.108 20.221 129.825 20.25 130.121 20.287 M 164.334 20.749 C 164.119 20.978 163.975 21.187 164.013 21.213 C 164.052 21.239 164.285 21.052 164.531 20.797 C 164.777 20.542 164.922 20.333 164.852 20.333 C 164.782 20.333 164.549 20.521 164.334 20.749 M 318.167 22.083 C 317.762 22.496 317.468 22.833 317.514 22.833 C 317.56 22.833 317.928 22.496 318.333 22.083 C 318.738 21.671 319.032 21.333 318.986 21.333 C 318.94 21.333 318.572 21.671 318.167 22.083 M 179.205 22.167 C 179.205 22.488 179.24 22.619 179.282 22.458 C 179.323 22.298 179.323 22.035 179.282 21.875 C 179.24 21.715 179.205 21.846 179.205 22.167 M 303.976 22.625 C 303.943 22.969 303.962 23.55 304.018 23.917 C 304.096 24.427 304.125 24.28 304.143 23.292 C 304.168 21.932 304.076 21.566 303.976 22.625 M 301.75 22.611 C 301.475 22.755 301.025 23.082 300.75 23.338 C 300.475 23.594 300.016 23.941 299.731 24.11 C 297.691 25.315 296.859 25.851 296.663 26.087 C 296.539 26.237 296.082 26.54 295.647 26.76 C 295.213 26.98 294.805 27.245 294.74 27.349 C 294.676 27.452 294.24 27.708 293.77 27.916 C 293.301 28.124 292.767 28.463 292.583 28.669 C 292.4 28.875 291.929 29.182 291.537 29.351 C 291.144 29.521 290.493 29.905 290.089 30.205 C 289.686 30.505 288.968 30.975 288.494 31.25 C 288.02 31.525 287.321 31.994 286.941 32.293 C 286.561 32.592 285.944 32.984 285.57 33.163 C 285.197 33.343 284.694 33.645 284.453 33.834 C 284.213 34.024 283.674 34.33 283.257 34.514 C 282.839 34.699 282.348 35.01 282.165 35.206 C 281.85 35.545 281.543 35.742 279.502 36.917 C 279.024 37.192 278.333 37.66 277.967 37.958 C 277.601 38.256 277.207 38.5 277.09 38.5 C 276.907 38.5 275.509 39.441 274.167 40.468 C 273.938 40.643 273.427 40.951 273.033 41.151 C 272.638 41.352 271.976 41.775 271.562 42.091 C 271.147 42.408 270.713 42.667 270.596 42.667 C 270.48 42.667 270.242 42.825 270.067 43.018 C 269.893 43.212 269.333 43.58 268.823 43.838 C 268.314 44.095 267.794 44.43 267.668 44.582 C 267.542 44.734 267.154 45.003 266.805 45.181 C 266.457 45.359 265.526 45.934 264.736 46.46 C 263.947 46.986 263.013 47.567 262.662 47.751 C 262.311 47.935 261.85 48.246 261.637 48.441 C 261.424 48.636 260.912 48.962 260.5 49.166 C 260.087 49.37 259.563 49.711 259.333 49.923 C 259.104 50.136 258.487 50.47 257.962 50.666 C 256.722 51.127 256.288 52.143 257.073 52.746 C 257.315 52.932 257.851 53.402 258.265 53.791 C 258.679 54.18 259.633 55.014 260.384 55.644 C 261.135 56.274 262.209 57.235 262.769 57.779 C 263.329 58.324 264.717 59.582 265.852 60.576 C 266.988 61.57 268.179 62.632 268.5 62.935 C 270.256 64.594 270.729 65.031 272.085 66.25 C 272.901 66.983 274.177 68.146 274.92 68.833 C 275.663 69.521 276.748 70.496 277.33 71 C 277.912 71.504 278.62 72.151 278.902 72.437 C 279.185 72.722 280.129 73.579 281 74.339 C 281.871 75.1 282.873 75.991 283.228 76.319 C 284.952 77.916 285.4 78.328 286.508 79.333 C 287.165 79.929 288.092 80.792 288.569 81.25 C 289.046 81.708 289.879 82.458 290.421 82.917 C 290.963 83.375 291.709 84.023 292.078 84.356 C 293.01 85.196 293.816 85.906 295.75 87.589 C 296.667 88.386 297.648 89.274 297.93 89.561 C 298.212 89.848 298.587 90.201 298.763 90.345 C 298.939 90.49 299.537 91.09 300.091 91.679 C 300.645 92.268 301.357 92.898 301.674 93.079 C 303.142 93.918 303.014 96.298 303.094 66.72 C 303.171 38.044 303.279 23.836 303.421 23.465 C 303.675 22.803 302.516 22.21 301.75 22.611 M 161.24 27.917 C 161.24 30.575 161.263 31.639 161.291 30.281 C 161.319 28.924 161.319 26.749 161.291 25.448 C 161.263 24.147 161.24 25.258 161.24 27.917 M 348.875 24.448 C 349.035 24.49 349.298 24.49 349.458 24.448 C 349.619 24.406 349.488 24.372 349.167 24.372 C 348.846 24.372 348.715 24.406 348.875 24.448 M 354.208 24.448 C 354.369 24.49 354.631 24.49 354.792 24.448 C 354.952 24.406 354.821 24.372 354.5 24.372 C 354.179 24.372 354.048 24.406 354.208 24.448 M 315.573 25.208 L 315.083 25.75 L 315.625 25.26 C 316.13 24.804 316.243 24.667 316.115 24.667 C 316.086 24.667 315.842 24.91 315.573 25.208 M 18.406 25.875 L 17.917 26.417 L 18.458 25.927 C 18.963 25.471 19.077 25.333 18.948 25.333 C 18.919 25.333 18.675 25.577 18.406 25.875 M 110.24 28.208 L 109.75 28.75 L 110.292 28.26 C 110.59 27.991 110.833 27.748 110.833 27.719 C 110.833 27.59 110.696 27.703 110.24 28.208 M 13.073 29.875 L 12.583 30.417 L 13.125 29.927 C 13.63 29.471 13.743 29.333 13.615 29.333 C 13.586 29.333 13.342 29.577 13.073 29.875 M 231.406 30.042 L 230.917 30.583 L 231.458 30.094 C 231.963 29.638 232.077 29.5 231.948 29.5 C 231.919 29.5 231.675 29.744 231.406 30.042 M 335.406 30.042 L 334.917 30.583 L 335.458 30.094 C 335.963 29.638 336.077 29.5 335.948 29.5 C 335.919 29.5 335.675 29.744 335.406 30.042 M 304.223 31.333 C 304.223 32.021 304.252 32.302 304.288 31.958 C 304.324 31.615 304.324 31.052 304.288 30.708 C 304.252 30.365 304.223 30.646 304.223 31.333 M 236.899 32.75 C 236.899 34.033 236.926 34.536 236.957 33.868 C 236.989 33.199 236.989 32.149 236.957 31.534 C 236.925 30.92 236.899 31.467 236.899 32.75 M 90.821 31.292 L 90.417 31.75 L 90.917 31.333 C 91.192 31.104 91.448 30.898 91.486 30.875 C 91.524 30.852 91.481 30.833 91.39 30.833 C 91.299 30.833 91.043 31.04 90.821 31.292 M 214.705 31.667 C 214.705 31.988 214.74 32.119 214.782 31.958 C 214.823 31.798 214.823 31.535 214.782 31.375 C 214.74 31.215 214.705 31.346 214.705 31.667 M 304.241 37.917 C 304.241 40.85 304.264 42.027 304.291 40.531 C 304.319 39.036 304.319 36.636 304.291 35.198 C 304.264 33.76 304.241 34.983 304.241 37.917 M 98.564 36.583 C 98.564 37.683 98.591 38.112 98.624 37.535 C 98.656 36.959 98.656 36.059 98.623 35.535 C 98.59 35.012 98.563 35.483 98.564 36.583 M 137.612 34.792 C 141.753 34.816 148.578 34.816 152.779 34.792 C 156.98 34.767 153.592 34.747 145.25 34.747 C 136.908 34.747 133.471 34.767 137.612 34.792 M 86.375 35.583 C 86.377 35.95 86.411 36.08 86.451 35.873 C 86.491 35.666 86.49 35.366 86.448 35.206 C 86.406 35.047 86.374 35.217 86.375 35.583 M 224.74 40 C 224.74 42.704 224.763 43.81 224.791 42.458 C 224.819 41.106 224.819 38.894 224.791 37.542 C 224.763 36.19 224.74 37.296 224.74 40 M 86.406 40.75 C 86.405 43.042 86.429 44.002 86.458 42.885 C 86.487 41.767 86.487 39.892 86.458 38.718 C 86.429 37.544 86.406 38.458 86.406 40.75 M 46.333 37.167 C 46.15 37.35 46.002 37.594 46.005 37.708 C 46.008 37.823 46.096 37.767 46.201 37.583 C 46.306 37.4 46.51 37.159 46.655 37.047 C 46.799 36.935 46.86 36.842 46.792 36.839 C 46.723 36.836 46.517 36.983 46.333 37.167 M 88.071 40.417 C 88.071 42.342 88.095 43.106 88.124 42.116 C 88.154 41.126 88.154 39.551 88.124 38.616 C 88.095 37.681 88.07 38.492 88.071 40.417 M 75.875 38.917 C 75.877 39.283 75.911 39.414 75.951 39.206 C 75.991 38.999 75.99 38.699 75.948 38.54 C 75.906 38.38 75.874 38.55 75.875 38.917 M 214.542 38.917 C 214.544 39.283 214.578 39.414 214.618 39.206 C 214.658 38.999 214.656 38.699 214.615 38.54 C 214.573 38.38 214.54 38.55 214.542 38.917 M 118.991 39.125 L 118.417 39.75 L 119.042 39.176 C 119.623 38.641 119.743 38.5 119.616 38.5 C 119.588 38.5 119.307 38.781 118.991 39.125 M 30.915 66.833 C 30.915 81.638 30.934 87.694 30.958 80.292 C 30.982 72.89 30.982 60.777 30.958 53.375 C 30.934 45.973 30.915 52.029 30.915 66.833 M 116.74 41.208 L 116.25 41.75 L 116.792 41.26 C 117.09 40.991 117.333 40.748 117.333 40.719 C 117.333 40.59 117.196 40.703 116.74 41.208 M 334.564 43.24 C 334.513 43.372 334.507 43.616 334.55 43.782 C 334.603 43.985 334.634 43.939 334.647 43.639 C 334.658 43.394 334.76 43.157 334.875 43.11 C 335.038 43.045 335.037 43.023 334.87 43.013 C 334.752 43.006 334.615 43.108 334.564 43.24 M 352.148 43.152 C 352.276 43.233 352.436 43.588 352.504 43.941 L 352.628 44.583 L 352.648 43.893 C 352.661 43.404 352.59 43.173 352.403 43.101 C 352.02 42.954 351.88 42.982 352.148 43.152 M 353.278 43.444 C 353.217 43.506 353.167 43.67 353.167 43.81 C 353.167 44.033 353.192 44.032 353.375 43.801 C 353.49 43.657 353.696 43.498 353.833 43.449 C 354.005 43.388 353.975 43.356 353.736 43.346 C 353.545 43.339 353.339 43.383 353.278 43.444 M 307.209 45.417 C 307.211 45.783 307.245 45.914 307.285 45.706 C 307.324 45.499 307.323 45.199 307.281 45.04 C 307.239 44.88 307.207 45.05 307.209 45.417 M 226.853 45.375 C 226.842 45.627 226.865 45.833 226.903 45.833 C 226.941 45.833 227.11 45.881 227.278 45.939 C 227.559 46.036 227.561 46.026 227.306 45.814 C 227.153 45.687 226.993 45.433 226.95 45.25 C 226.892 45.001 226.867 45.032 226.853 45.375 M 358.718 45.125 C 359.892 45.153 361.767 45.153 362.885 45.124 C 364.002 45.096 363.042 45.072 360.75 45.072 C 358.458 45.072 357.544 45.096 358.718 45.125 M 355.742 51.917 C 355.742 55.308 355.764 56.672 355.791 54.947 C 355.819 53.223 355.819 50.448 355.791 48.781 C 355.764 47.114 355.742 48.525 355.742 51.917 M 396.55 48 C 396.55 48.504 396.581 48.71 396.619 48.458 C 396.658 48.206 396.658 47.794 396.619 47.542 C 396.581 47.29 396.55 47.496 396.55 48 M 307.045 48.167 C 307.045 48.579 307.078 48.748 307.118 48.542 C 307.157 48.335 307.157 47.998 307.118 47.792 C 307.078 47.585 307.045 47.754 307.045 48.167 M 353.408 54.917 C 353.408 58.033 353.431 59.285 353.458 57.698 C 353.486 56.111 353.485 53.561 353.458 52.031 C 353.431 50.501 353.408 51.8 353.408 54.917 M 324.565 51.667 C 324.565 52.904 324.592 53.41 324.624 52.792 C 324.656 52.173 324.656 51.16 324.624 50.542 C 324.592 49.923 324.565 50.429 324.565 51.667 M 80.145 51.125 C 79.946 51.379 79.949 51.392 80.167 51.224 C 80.304 51.119 80.604 50.997 80.833 50.955 L 81.25 50.879 L 80.812 50.856 C 80.571 50.844 80.271 50.964 80.145 51.125 M 215.677 51.25 C 215.677 51.342 215.787 51.562 215.922 51.74 C 216.057 51.918 216.167 51.989 216.167 51.897 C 216.167 51.805 216.057 51.585 215.922 51.407 C 215.787 51.229 215.677 51.158 215.677 51.25 M 0.375 51.463 C 0.169 51.496 0 51.593 0 51.678 C 0 51.893 0.622 51.874 0.757 51.656 C 0.899 51.425 0.831 51.39 0.375 51.463 M 95.039 52.667 C 95.039 52.987 95.073 53.119 95.115 52.958 C 95.157 52.798 95.157 52.535 95.115 52.375 C 95.073 52.215 95.039 52.346 95.039 52.667 M 233.581 73.667 C 233.581 84.804 233.601 89.36 233.625 83.792 C 233.649 78.223 233.649 69.11 233.625 63.542 C 233.601 57.973 233.581 62.529 233.581 73.667 M 94.914 73.667 C 94.914 84.712 94.934 89.231 94.958 83.708 C 94.983 78.185 94.983 69.148 94.958 63.625 C 94.934 58.102 94.914 62.621 94.914 73.667 M 98.209 54.25 C 98.211 54.617 98.245 54.747 98.285 54.54 C 98.324 54.332 98.323 54.032 98.281 53.873 C 98.239 53.714 98.207 53.883 98.209 54.25 M 216.074 58.417 C 216.074 61.075 216.097 62.139 216.125 60.781 C 216.153 59.424 216.153 57.249 216.125 55.948 C 216.096 54.647 216.073 55.758 216.074 58.417 M 307.045 54.667 C 307.045 55.079 307.078 55.248 307.118 55.042 C 307.157 54.835 307.157 54.498 307.118 54.292 C 307.078 54.085 307.045 54.254 307.045 54.667 M 396.552 55.417 C 396.553 55.967 396.584 56.172 396.621 55.872 C 396.658 55.572 396.657 55.122 396.619 54.872 C 396.581 54.622 396.551 54.867 396.552 55.417 M 76.732 56.833 C 76.732 58.071 76.758 58.577 76.79 57.958 C 76.822 57.34 76.822 56.327 76.79 55.708 C 76.758 55.09 76.732 55.596 76.732 56.833 M 61.205 56 C 61.205 56.321 61.24 56.452 61.282 56.292 C 61.323 56.131 61.323 55.869 61.282 55.708 C 61.24 55.548 61.205 55.679 61.205 56 M 110.539 56.333 C 110.539 56.654 110.573 56.785 110.615 56.625 C 110.657 56.465 110.657 56.202 110.615 56.042 C 110.573 55.881 110.539 56.012 110.539 56.333 M 15.718 57.25 C 15.719 57.8 15.75 58.005 15.787 57.705 C 15.825 57.406 15.824 56.956 15.786 56.705 C 15.748 56.455 15.717 56.7 15.718 57.25 M 364.333 56.719 C 364.333 56.748 364.577 56.991 364.875 57.26 L 365.417 57.75 L 364.927 57.208 C 364.471 56.703 364.333 56.59 364.333 56.719 M 307.209 57.417 C 307.211 57.783 307.245 57.914 307.285 57.706 C 307.324 57.499 307.323 57.199 307.281 57.04 C 307.239 56.88 307.207 57.05 307.209 57.417 M 98.053 58.333 C 98.053 58.929 98.084 59.173 98.121 58.875 C 98.158 58.577 98.158 58.09 98.121 57.792 C 98.084 57.494 98.053 57.737 98.053 58.333 M 304.247 75 C 304.247 84.396 304.267 88.24 304.292 83.542 C 304.316 78.844 304.316 71.156 304.292 66.458 C 304.267 61.76 304.247 65.604 304.247 75 M 110.539 60.333 C 110.539 60.654 110.573 60.785 110.615 60.625 C 110.657 60.465 110.657 60.202 110.615 60.042 C 110.573 59.881 110.539 60.012 110.539 60.333 M 98.212 62 C 98.212 62.413 98.245 62.581 98.284 62.375 C 98.324 62.169 98.324 61.831 98.284 61.625 C 98.245 61.419 98.212 61.587 98.212 62 M 188.721 65.458 C 193.564 65.483 201.439 65.483 206.221 65.458 C 211.004 65.434 207.042 65.414 197.417 65.414 C 187.792 65.414 183.879 65.434 188.721 65.458 M 179.042 67.417 C 179.044 67.783 179.078 67.914 179.118 67.706 C 179.158 67.499 179.156 67.199 179.115 67.04 C 179.073 66.88 179.04 67.05 179.042 67.417 M 331 68.885 C 331 68.914 331.244 69.158 331.542 69.427 L 332.083 69.917 L 331.594 69.375 C 331.138 68.87 331 68.757 331 68.885 M 333 71.083 C 333.498 71.587 333.943 72 333.989 72 C 334.034 72 333.665 71.587 333.167 71.083 C 332.669 70.579 332.224 70.167 332.178 70.167 C 332.132 70.167 332.502 70.579 333 71.083 M 100.012 71.917 C 100.012 72.008 100.119 72.271 100.25 72.5 C 100.381 72.729 100.488 72.842 100.488 72.75 C 100.488 72.658 100.381 72.396 100.25 72.167 C 100.119 71.938 100.012 71.825 100.012 71.917 M 114.5 72.385 C 114.5 72.414 114.744 72.658 115.042 72.927 L 115.583 73.417 L 115.094 72.875 C 114.638 72.37 114.5 72.257 114.5 72.385 M 115.833 74.219 C 115.833 74.248 116.077 74.491 116.375 74.76 L 116.917 75.25 L 116.427 74.708 C 115.971 74.203 115.833 74.09 115.833 74.219 M 118 76.417 C 118.311 76.737 118.603 77 118.649 77 C 118.695 77 118.478 76.737 118.167 76.417 C 117.856 76.096 117.564 75.833 117.518 75.833 C 117.472 75.833 117.689 76.096 118 76.417 M 119.167 77.219 C 119.167 77.248 119.41 77.491 119.708 77.76 L 120.25 78.25 L 119.76 77.708 C 119.304 77.203 119.167 77.09 119.167 77.219 M 348.458 78.618 C 348.665 78.657 349.002 78.657 349.208 78.618 C 349.415 78.578 349.246 78.545 348.833 78.545 C 348.421 78.545 348.252 78.578 348.458 78.618 M 354.211 78.62 C 354.464 78.658 354.839 78.657 355.044 78.617 C 355.249 78.578 355.042 78.546 354.583 78.548 C 354.125 78.549 353.957 78.581 354.211 78.62 M 266.667 80.719 C 266.667 80.748 266.91 80.991 267.208 81.26 L 267.75 81.75 L 267.26 81.208 C 266.804 80.703 266.667 80.59 266.667 80.719 M 384.5 81.917 C 384.095 82.329 383.801 82.667 383.847 82.667 C 383.893 82.667 384.262 82.329 384.667 81.917 C 385.072 81.504 385.365 81.167 385.319 81.167 C 385.274 81.167 384.905 81.504 384.5 81.917 M 138.721 81.458 C 142.738 81.483 149.263 81.483 153.221 81.458 C 157.179 81.433 153.892 81.413 145.917 81.413 C 137.942 81.413 134.704 81.433 138.721 81.458 M 268.333 82.417 C 268.644 82.737 268.936 83 268.982 83 C 269.028 83 268.811 82.737 268.5 82.417 C 268.189 82.096 267.897 81.833 267.851 81.833 C 267.805 81.833 268.022 82.096 268.333 82.417 M 270 84.083 C 270.498 84.587 270.943 85 270.989 85 C 271.034 85 270.665 84.587 270.167 84.083 C 269.669 83.579 269.224 83.167 269.178 83.167 C 269.132 83.167 269.502 83.579 270 84.083 M 382.244 84.208 L 381.417 85.083 L 382.292 84.256 C 382.773 83.801 383.167 83.408 383.167 83.381 C 383.167 83.257 383.012 83.395 382.244 84.208 M 161.24 88.583 C 161.24 91.058 161.263 92.094 161.291 90.885 C 161.32 89.676 161.32 87.651 161.291 86.385 C 161.263 85.119 161.24 86.108 161.24 88.583 M 380.24 85.875 L 379.75 86.417 L 380.292 85.927 C 380.797 85.471 380.91 85.333 380.781 85.333 C 380.752 85.333 380.509 85.577 380.24 85.875 M 273.664 87.542 C 274.625 88.527 275.431 89.333 275.455 89.333 C 275.576 89.333 275.372 89.12 273.708 87.497 L 271.917 85.75 L 273.664 87.542 M 277 90.917 C 277.591 91.513 278.111 92 278.157 92 C 278.203 92 277.757 91.513 277.167 90.917 C 276.576 90.321 276.055 89.833 276.01 89.833 C 275.964 89.833 276.409 90.321 277 90.917 M 80.145 95.708 C 80.297 95.902 80.577 95.991 80.979 95.973 L 81.583 95.947 L 81.001 95.876 C 80.68 95.838 80.305 95.718 80.167 95.611 C 79.949 95.442 79.946 95.454 80.145 95.708 M 127.458 95.784 C 127.665 95.824 128.002 95.824 128.208 95.784 C 128.415 95.745 128.246 95.712 127.833 95.712 C 127.421 95.712 127.252 95.745 127.458 95.784 M 159.75 95.833 L 159.083 95.953 L 159.698 95.976 C 160.037 95.989 160.36 95.925 160.417 95.833 C 160.473 95.742 160.496 95.677 160.468 95.69 C 160.44 95.703 160.117 95.768 159.75 95.833 M 347.627 95.785 C 347.834 95.824 348.134 95.823 348.294 95.781 C 348.453 95.739 348.283 95.707 347.917 95.709 C 347.55 95.711 347.42 95.745 347.627 95.785 M 355.125 95.784 C 355.331 95.824 355.669 95.824 355.875 95.784 C 356.081 95.745 355.912 95.712 355.5 95.712 C 355.087 95.712 354.919 95.745 355.125 95.784 M 130.542 95.956 C 130.977 95.99 131.69 95.99 132.125 95.956 C 132.56 95.922 132.204 95.893 131.333 95.893 C 130.462 95.893 130.106 95.922 130.542 95.956" stroke="none" fill-rule="evenodd" fill="#f2db0d">
    <title>yellow</title>
  </path>
</svg>